<?xml version="1.0"?><svg version="1.1" id="Layer_1" xmlns="http://www.w3.org/2000/svg" x="0" y="0" viewBox="0 0 100 100" xml:space="preserve"><g><path stroke-width="3.5" stroke-miterlimit="10" fill="#e0e0e0" stroke="#333" d="M45 48h10v31H45z"/><path d="M70 85H30l.457-1.702A8.508 8.508 0 0 1 38.672 77h22.655a8.507 8.507 0 0 1 8.215 6.298L70 85z" fill="#e0e0e0" stroke="#333" stroke-width="3.5" stroke-linejoin="round" stroke-miterlimit="10"/><path d="M52 48v37h18l-.457-1.702A8.508 8.508 0 0 0 61.328 77H55V48h-3z" opacity=".2" stroke="#000" stroke-width="3.5" stroke-miterlimit="10"/></g><path d="M79.333 63H20.667A4.666 4.666 0 0 1 16 58.333V23.667A4.666 4.666 0 0 1 20.667 19h58.667A4.666 4.666 0 0 1 84 23.667v34.667A4.666 4.666 0 0 1 79.333 63z" fill="#666" stroke="#333" stroke-width="3.5" stroke-miterlimit="10"/><path d="M21 30.125v-3.459A2.667 2.667 0 0 1 23.667 24H25" fill="none" stroke-width="3.5" stroke-linecap="round" stroke="#fff" stroke-miterlimit="10"/><path fill="none" stroke-width="3.5" stroke-linecap="round" stroke="#fff" stroke-miterlimit="10" d="M21 36.75v-1.125"/><g><path stroke-miterlimit="10" fill="none" stroke="#fff" stroke-width="3.5" d="M60.075 28.625L67.6 41l-7.525 12.375"/><path stroke-miterlimit="10" fill="none" stroke="#fff" stroke-width="3.5" d="M39.925 53.375L32.4 41l7.525-12.375"/><path stroke-miterlimit="10" fill="none" stroke="#fff" stroke-width="3.5" d="M54.808 24.5l-9.616 33"/></g><path d="M79.333 19h-12.3l-12.48 44h24.779A4.667 4.667 0 0 0 84 58.333V23.667A4.666 4.666 0 0 0 79.333 19z" opacity=".2" stroke="#000" stroke-width="3.5" stroke-miterlimit="10"/><metadata xmlns:d="https://loading.io/stock/">
<d:name>html</d:name>
<d:tags>html,developer,code,frontend,web,engineer,coding,hack,software</d:tags>
<d:license>by</d:license>
<d:slug>61hyfl</d:slug>
</metadata></svg>